<svg xmlns="http://www.w3.org/2000/svg" height="601pt" version="1.1" viewBox="0 0 601 601.06374" width="601pt">
<g id="surface1">
<path d="M 600.03125 90 C 600.03125 84.476562 595.554688 80 590.03125 80 L 217.828125 80 L 199.734375 7.578125 C 198.621094 3.125 194.621094 0 190.03125 0 L 10.03125 0 C 4.507812 0 0.03125 4.476562 0.03125 10 L 0.03125 430 C 0.03125 435.523438 4.507812 440 10.03125 440 L 300.539062 440 C 300.320312 443.320312 300.03125 446.621094 300.03125 450 C 299.632812 506.242188 330.730469 557.976562 380.578125 584.019531 C 430.433594 610.058594 490.660156 606.019531 536.589844 573.5625 C 582.523438 541.109375 606.4375 485.683594 598.542969 430 L 600.03125 430 Z M 20.03125 20 L 182.222656 20 L 197.222656 80 L 20.03125 80 Z M 450.03125 580 C 378.234375 580 320.03125 521.796875 320.03125 450 C 320.03125 378.203125 378.234375 320 450.03125 320 C 521.828125 320 580.03125 378.203125 580.03125 450 C 579.949219 521.761719 521.792969 579.917969 450.03125 580 Z M 450.03125 300 C 378.777344 300.082031 317.375 350.203125 303.03125 420 L 20.03125 420 L 20.03125 100 L 580.03125 100 L 580.03125 375.476562 C 553.34375 328.859375 503.757812 300.0625 450.03125 300 Z M 450.03125 300 " style=" stroke:none;fill-rule:nonzero;fill:rgb(0%,0%,0%);fill-opacity:1;" />
<path d="M 460.03125 350 L 440.03125 350 L 440.03125 440 L 350.03125 440 L 350.03125 460 L 440.03125 460 L 440.03125 540 L 460.03125 540 L 460.03125 460 L 550.03125 460 L 550.03125 440 L 460.03125 440 Z M 460.03125 350 " style=" stroke:none;fill-rule:nonzero;fill:rgb(0%,0%,0%);fill-opacity:1;" />
</g>
</svg>