<?xml version="1.0"?>
<svg xmlns="http://www.w3.org/2000/svg" width="512" height="512" viewBox="0 0 128 128"><g><path d="M115.5,10.75H103.75V6.5A1.751,1.751,0,0,0,102,4.75H96A1.751,1.751,0,0,0,94.25,6.5v4.25H80.417V6.5a1.751,1.751,0,0,0-1.75-1.75h-6a1.75,1.75,0,0,0-1.75,1.75v4.25H57.083V6.5a1.75,1.75,0,0,0-1.75-1.75h-6a1.751,1.751,0,0,0-1.75,1.75v4.25H33.75V6.5A1.751,1.751,0,0,0,32,4.75H26A1.751,1.751,0,0,0,24.25,6.5v4.25H12.5A7.759,7.759,0,0,0,4.75,18.5v83.1h0a21.65,21.65,0,0,0,43.23,1.749H121.5a1.751,1.751,0,0,0,1.75-1.75V18.5A7.759,7.759,0,0,0,115.5,10.75ZM97.75,8.25h2.5v8.5h-2.5Zm-20.833,0v8.5h-2.5V12.534c0-.012,0-.022,0-.034s0-.022,0-.034V8.25Zm-25.834,0h2.5v4.216c0,.012,0,.022,0,.034s0,.022,0,.034V16.75h-2.5Zm-23.333,0h2.5v8.5h-2.5Zm-15.25,6H24.25V18.5A1.751,1.751,0,0,0,26,20.25h6a1.751,1.751,0,0,0,1.75-1.75V14.25H47.583V18.5a1.751,1.751,0,0,0,1.75,1.75h6a1.75,1.75,0,0,0,1.75-1.75V14.25H70.917V18.5a1.75,1.75,0,0,0,1.75,1.75h6a1.751,1.751,0,0,0,1.75-1.75V14.25H94.25V18.5A1.751,1.751,0,0,0,96,20.25h6a1.751,1.751,0,0,0,1.75-1.75V14.25H115.5a4.255,4.255,0,0,1,4.25,4.25v9.94H8.25V18.5A4.255,4.255,0,0,1,12.5,14.25Zm13.9,105.5A18.154,18.154,0,1,1,44.558,101.6,18.175,18.175,0,0,1,26.4,119.75Zm93.346-19.9H47.981A21.64,21.64,0,0,0,8.25,89.814V31.94h111.5V99.85Z"/><path d="M115.5,44.75a1.751,1.751,0,0,0-1.75,1.75V59a1.75,1.75,0,0,0,3.5,0V46.5A1.751,1.751,0,0,0,115.5,44.75Z"/><path d="M33.5,42.585h-9a1.751,1.751,0,0,0-1.75,1.75v9a1.751,1.751,0,0,0,1.75,1.75h9a1.751,1.751,0,0,0,1.75-1.75v-9A1.751,1.751,0,0,0,33.5,42.585Zm-1.75,9h-5.5v-5.5h5.5Z"/><path d="M56.833,42.585h-9a1.751,1.751,0,0,0-1.75,1.75v9a1.751,1.751,0,0,0,1.75,1.75h9a1.75,1.75,0,0,0,1.75-1.75v-9A1.75,1.75,0,0,0,56.833,42.585Zm-1.75,9h-5.5v-5.5h5.5Z"/><path d="M80.167,42.585h-9a1.75,1.75,0,0,0-1.75,1.75v9a1.75,1.75,0,0,0,1.75,1.75h9a1.751,1.751,0,0,0,1.75-1.75v-9A1.751,1.751,0,0,0,80.167,42.585Zm-1.75,9h-5.5v-5.5h5.5Z"/><path d="M103.5,42.585h-9a1.751,1.751,0,0,0-1.75,1.75v9a1.751,1.751,0,0,0,1.75,1.75h9a1.751,1.751,0,0,0,1.75-1.75v-9A1.751,1.751,0,0,0,103.5,42.585Zm-1.75,9h-5.5v-5.5h5.5Z"/><path d="M33.5,59.644h-9a1.751,1.751,0,0,0-1.75,1.75v9a1.751,1.751,0,0,0,1.75,1.75h9a1.751,1.751,0,0,0,1.75-1.75v-9A1.751,1.751,0,0,0,33.5,59.644Zm-1.75,9h-5.5v-5.5h5.5Z"/><path d="M56.833,59.644h-9a1.751,1.751,0,0,0-1.75,1.75v9a1.751,1.751,0,0,0,1.75,1.75h9a1.75,1.75,0,0,0,1.75-1.75v-9A1.75,1.75,0,0,0,56.833,59.644Zm-1.75,9h-5.5v-5.5h5.5Z"/><path d="M80.167,59.644h-9a1.75,1.75,0,0,0-1.75,1.75v9a1.75,1.75,0,0,0,1.75,1.75h9a1.751,1.751,0,0,0,1.75-1.75v-9A1.751,1.751,0,0,0,80.167,59.644Zm-1.75,9h-5.5v-5.5h5.5Z"/><path d="M103.5,59.644h-9a1.751,1.751,0,0,0-1.75,1.75v9a1.751,1.751,0,0,0,1.75,1.75h9a1.751,1.751,0,0,0,1.75-1.75v-9A1.751,1.751,0,0,0,103.5,59.644Zm-1.75,9h-5.5v-5.5h5.5Z"/><path d="M56.833,76.7h-9a1.751,1.751,0,0,0-1.75,1.75v9a1.751,1.751,0,0,0,1.75,1.75h9a1.75,1.75,0,0,0,1.75-1.75v-9A1.75,1.75,0,0,0,56.833,76.7Zm-1.75,9h-5.5V80.2h5.5Z"/><path d="M80.167,76.7h-9a1.75,1.75,0,0,0-1.75,1.75v9a1.75,1.75,0,0,0,1.75,1.75h9a1.751,1.751,0,0,0,1.75-1.75v-9A1.751,1.751,0,0,0,80.167,76.7Zm-1.75,9h-5.5V80.2h5.5Z"/><path d="M103.5,76.7h-9a1.751,1.751,0,0,0-1.75,1.75v9A1.751,1.751,0,0,0,94.5,89.2h9a1.751,1.751,0,0,0,1.75-1.75v-9A1.751,1.751,0,0,0,103.5,76.7Zm-1.75,9h-5.5V80.2h5.5Z"/><path d="M34.9,96.846h-3.75V93.1a1.751,1.751,0,0,0-1.75-1.75h-6a1.75,1.75,0,0,0-1.75,1.75v3.75H17.9a1.75,1.75,0,0,0-1.75,1.75v6a1.749,1.749,0,0,0,1.75,1.75h3.75v3.75a1.749,1.749,0,0,0,1.75,1.75h6a1.75,1.75,0,0,0,1.75-1.75v-3.75H34.9a1.75,1.75,0,0,0,1.75-1.75v-6A1.751,1.751,0,0,0,34.9,96.846Zm-1.75,6H29.4a1.75,1.75,0,0,0-1.75,1.75v3.75h-2.5V104.6a1.751,1.751,0,0,0-1.75-1.75h-3.75v-2.5H23.4a1.75,1.75,0,0,0,1.75-1.75v-3.75h2.5V98.6a1.749,1.749,0,0,0,1.75,1.75h3.75Z"/></g></svg>
