<svg id="Capa_1" enable-background="new 0 0 469.421 469.421" height="512" viewBox="0 0 469.421 469.421" width="512" xmlns="http://www.w3.org/2000/svg"><g><path d="m7.846 198.336c4.142 0 7.5-3.358 7.5-7.5v-19.461c0-52.416 42.643-95.059 95.059-95.059s95.059 42.643 95.059 95.059v105.825c0 4.142 3.358 7.5 7.5 7.5s7.5-3.358 7.5-7.5v-105.824c0-58.166-45.357-105.929-102.559-109.798v-54.078c0-4.142-3.358-7.5-7.5-7.5s-7.5 3.358-7.5 7.5v54.078c-57.202 3.869-102.559 51.632-102.559 109.798v19.461c0 4.142 3.358 7.499 7.5 7.499z"/><path d="m114.114 97.849c-20.094-1.008-39.247 6.155-53.963 20.154-14.849 14.126-23.365 33.984-23.365 54.483v105.231c0 10.6 8.624 19.224 19.224 19.224h108.79c10.6 0 19.224-8.624 19.224-19.224v-106.342c0-39.273-30.708-71.569-69.91-73.526zm-43.624 31.022c10.989-10.454 25.074-16.114 39.939-16.114.976 0 1.955.024 2.937.073 30.824 1.539 55.035 26.645 55.63 57.389l-6.209-1.798c-12.001-3.476-24.643-2.081-35.598 3.929-9.604 5.268-21.073 5.268-30.68-.001l-.454-.249c-10.605-5.817-22.884-7.314-34.576-4.212l-9.64 2.557c.54-15.68 7.258-30.735 18.651-41.574zm94.31 153.07h-108.79c-2.329 0-4.224-1.895-4.224-4.224v-91.738l13.539-3.591c7.951-2.109 16.303-1.091 23.517 2.865l.454.249c7.062 3.874 14.806 5.81 22.553 5.81 7.745 0 15.493-1.937 22.553-5.81 7.45-4.087 16.049-5.037 24.211-2.672l10.41 3.015v91.873c.001 2.328-1.894 4.223-4.223 4.223z"/><path d="m461.575 405.692h-176.744c-3.161-9.625-12.227-16.596-22.895-16.596h-42.436c-10.907 0-20.14 7.287-23.099 17.246h-78.497v-72.961h77.345c13.903 0 25.214-11.311 25.214-25.214v-.967c0-4.142-3.358-7.5-7.5-7.5s-7.5 3.358-7.5 7.5v.967c0 5.632-4.582 10.214-10.214 10.214h-169.689c-5.632 0-10.214-4.582-10.214-10.214v-87.331c0-4.142-3.358-7.5-7.5-7.5s-7.5 3.358-7.5 7.5v87.331c0 13.903 11.311 25.214 25.214 25.214h77.344v72.961h-16.5c-12.982 0-24.133 7.451-29.101 19.445-4.968 11.995-2.352 25.148 6.828 34.328 6.104 6.105 13.964 9.306 22.073 9.306 4.085 0 8.236-.814 12.254-2.478 11.994-4.968 19.445-16.119 19.445-29.102v-16.5h78.921c3.348 9.288 12.247 15.947 22.675 15.947h42.436c10.668 0 19.734-6.972 22.895-16.597h176.744c4.142 0 7.5-3.358 7.5-7.5.001-4.141-3.357-7.499-7.499-7.499zm-358.67 32.149c0 8.128-5.261 13.204-10.185 15.244-4.925 2.039-12.234 2.17-17.981-3.577-5.747-5.748-5.616-13.057-3.577-17.982 2.039-4.924 7.115-10.185 15.243-10.185h16.5zm159.031-15.552h-42.436c-5.016 0-9.097-4.081-9.097-9.097s4.081-9.096 9.097-9.096h42.436c5.016 0 9.096 4.081 9.096 9.096.001 5.016-4.08 9.097-9.096 9.097z"/></g></svg>