<svg id="_x31__px" height="512" viewBox="0 0 24 24" width="512" xmlns="http://www.w3.org/2000/svg"><g><path d="m15.5 24h-15c-.276 0-.5-.224-.5-.5v-4c0-1.93 1.57-3.5 3.5-3.5h9c1.93 0 3.5 1.57 3.5 3.5v4c0 .276-.224.5-.5.5zm-14.5-1h14v-3.5c0-1.379-1.121-2.5-2.5-2.5h-9c-1.379 0-2.5 1.121-2.5 2.5z"/></g><g><path d="m8 14c-2.481 0-4.5-2.019-4.5-4.5s2.019-4.5 4.5-4.5 4.5 2.019 4.5 4.5-2.019 4.5-4.5 4.5zm0-8c-1.93 0-3.5 1.57-3.5 3.5s1.57 3.5 3.5 3.5 3.5-1.57 3.5-3.5-1.57-3.5-3.5-3.5z"/></g><g><path d="m11.397 9.583c-1.188 0-2.046-.807-2.489-1.351-2.232 1.718-4.875 1.28-4.995 1.261-.271-.048-.452-.306-.405-.578.047-.271.303-.458.577-.408.028.005 2.638.426 4.575-1.373.111-.104.263-.15.413-.128s.282.112.359.243c.04.068.987 1.658 2.437 1.269.271-.074.541.086.613.352.072.267-.085.541-.352.613-.256.069-.501.1-.733.1z"/></g><g><path d="m19.5 11c-2.481 0-4.5-2.019-4.5-4.5v-5c0-.827.673-1.5 1.5-1.5h6c.827 0 1.5.673 1.5 1.5v5c0 2.481-2.019 4.5-4.5 4.5zm-3-10c-.275 0-.5.224-.5.5v5c0 1.93 1.57 3.5 3.5 3.5s3.5-1.57 3.5-3.5v-5c0-.276-.225-.5-.5-.5z"/></g><g><path d="m17.5 21h-2c-.276 0-.5-.224-.5-.5s.224-.5.5-.5h2c.827 0 1.5-.673 1.5-1.5v-8c0-.276.224-.5.5-.5s.5.224.5.5v8c0 1.379-1.121 2.5-2.5 2.5z"/></g><g><path d="m19.5 7c-.276 0-.5-.224-.5-.5v-3c0-.276.224-.5.5-.5s.5.224.5.5v3c0 .276-.224.5-.5.5z"/></g><g><path d="m21 5.5h-3c-.276 0-.5-.224-.5-.5s.224-.5.5-.5h3c.276 0 .5.224.5.5s-.224.5-.5.5z"/></g></svg>