<?xml version="1.0"?>
<svg xmlns="http://www.w3.org/2000/svg" id="Outline" viewBox="0 0 64 64" width="512" height="512"><path d="M46,2a16.02908,16.02908,0,0,0-7.46777,1.84668l.93554,1.76758A13.98352,13.98352,0,0,1,45,4.061V6h2V4.05066a13.9233,13.9233,0,0,1,8.15417,3.3811L53.77832,8.80762l1.41406,1.41406,1.37586-1.37585A13.9233,13.9233,0,0,1,59.94934,17H58v2h1.94934a13.9233,13.9233,0,0,1-3.3811,8.15417l-1.37586-1.37585-1.41406,1.41406,1.37585,1.37586A13.9233,13.9233,0,0,1,47,31.94934V30H45v1.96307c-.291-.02044-.58112-.04785-.86816-.08612l-.26368,1.98243A16.01424,16.01424,0,0,0,62,18,16.01833,16.01833,0,0,0,46,2Z"/><path d="M45,8v6.142a3.95694,3.95694,0,0,0-1.01929.42468L41.707,12.293,40.293,13.707l2.27368,2.27368A3.95571,3.95571,0,0,0,42,18a4,4,0,1,0,5-3.858V8Zm3,10a2,2,0,1,1-2-2A2.0026,2.0026,0,0,1,48,18Z"/><path d="M20,25V11a3.00328,3.00328,0,0,0-3-3H2v2H17a1.00067,1.00067,0,0,1,1,1V25Z"/><path d="M56,42H41V36.79449a1.98683,1.98683,0,0,0,.46484-.49957,2.01192,2.01192,0,0,0,.251-1.55566l-1.02441-4.09375A7.04066,7.04066,0,0,0,36.6582,25.9082L33,24.34088v-.02606A7.00264,7.00264,0,0,0,37,18V7a2.0026,2.0026,0,0,0-2-2H30a2.99586,2.99586,0,0,0-2.88422,2.22021A2.97743,2.97743,0,0,0,26,7H25a2.0026,2.0026,0,0,0-2,2v9a7.00264,7.00264,0,0,0,4,6.31482v.026L23.34082,25.9082a7.04221,7.04221,0,0,0-4.03223,4.73633L18.2832,34.74121a2.01312,2.01312,0,0,0,.252,1.55371A1.98683,1.98683,0,0,0,19,36.79449V42H7V36h9V34H7V24a3.00328,3.00328,0,0,0-3-3H2v2H4a1.00067,1.00067,0,0,1,1,1V42H2v2H56a1.00067,1.00067,0,0,1,1,1v4a1.00067,1.00067,0,0,1-1,1H2v2H33v5a1.00067,1.00067,0,0,1-1,1H2v2H32a3.00328,3.00328,0,0,0,3-3V52H53V62h2V52h1a3.00328,3.00328,0,0,0,3-3V45A3.00328,3.00328,0,0,0,56,42ZM29,24.9201a6.29777,6.29777,0,0,0,2,0V26a1,1,0,0,1-2,0ZM30,29a2.99793,2.99793,0,0,0,2.95-2.50531l2.05.87854V31H25V27.37286l2.05-.87829A2.998,2.998,0,0,0,30,29Zm-5,4H35v9H25Zm12,4.81982L39,37.42V42H37Zm1.752-6.689,1.02344,4.09473L37,35.7804V28.42987A5.02468,5.02468,0,0,1,38.752,31.13086ZM29,8a1.00067,1.00067,0,0,1,1-1h5v4H29ZM25,9h1a1.00067,1.00067,0,0,1,1,1v1H25Zm0,9V13H35v5a5,5,0,0,1-10,0Zm-3.752,13.12988A5.02534,5.02534,0,0,1,23,28.42963v7.35083l-2.77637-.55487ZM21,37.42l2,.39984V42H21Z"/><rect x="7" y="54" width="2" height="2"/><rect x="11" y="54" width="9" height="2"/><rect x="22" y="54" width="2" height="2"/></svg>
